<?xml version="1.0" standalone="no"?>
<!DOCTYPE svg PUBLIC "-//W3C//DTD SVG 20010904//EN"
 "http://www.w3.org/TR/2001/REC-SVG-20010904/DTD/svg10.dtd">
<svg version="1.0" xmlns="http://www.w3.org/2000/svg"
 width="120px" height="45px" viewBox="0 0 421.000000 161.000000"
 preserveAspectRatio="xMidYMid meet">

<g transform="translate(0.000000,161.000000) scale(0.100000,-0.100000)"
fill="#000000" stroke="none">
<path d="M2282 1290 c-77 -18 -121 -95 -122 -212 l0 -78 -55 0 -55 0 0 75 0
75 -70 0 -70 0 0 -76 0 -77 -50 7 c-55 7 -121 -14 -150 -49 -14 -17 -15 -16
-20 11 -5 29 -6 29 -75 29 l-70 0 -5 -70 c-4 -50 -7 -64 -13 -48 -4 11 -27 39
-52 62 -78 72 -196 88 -300 42 -42 -19 -97 -65 -108 -91 -6 -13 -8 -13 -13 0
-4 8 -26 34 -48 56 -69 70 -168 81 -248 28 l-38 -24 0 25 c0 26 -1 26 -67 23
l-68 -3 0 -320 0 -320 68 -3 67 -3 0 130 0 130 46 -24 c106 -56 217 -20 290
94 2 2 17 -13 35 -34 55 -62 100 -80 204 -80 73 0 98 4 130 22 46 24 77 55 99
98 16 30 16 29 16 -42 l0 -73 75 0 75 0 0 120 c0 159 15 190 91 190 17 0 40
-5 52 -11 16 -9 22 -9 25 0 2 6 15 11 28 11 24 0 24 0 24 -112 0 -94 3 -118
20 -145 30 -49 72 -66 144 -59 34 3 98 6 144 5 l82 0 0 155 0 156 30 0 c28 0
30 -2 20 -21 -19 -34 -14 -133 9 -178 38 -74 127 -121 231 -121 102 0 192 48
229 122 l21 43 0 -77 0 -78 70 0 70 0 0 355 0 355 -70 0 -70 0 0 -217 -1 -218
-19 36 c-65 124 -258 166 -382 84 l-37 -24 -3 27 c-3 25 -7 27 -50 30 l-48 3
0 62 c0 81 19 111 64 103 29 -5 32 -3 53 44 l22 50 -27 14 c-37 19 -91 25
-130 16z m-1388 -441 c58 -69 11 -169 -79 -169 -42 0 -95 59 -95 105 0 55 44
95 103 95 38 0 49 -5 71 -31z m470 5 c35 -36 36 -101 2 -141 -20 -23 -32 -28
-69 -28 -79 0 -123 67 -93 140 18 41 40 54 92 55 31 0 48 -6 68 -26z m796
-114 c0 -77 -2 -140 -5 -140 -2 0 -11 21 -18 48 -12 40 -18 46 -36 44 -41 -6
-51 14 -51 104 l0 84 55 0 55 0 0 -140z m501 111 c46 -47 35 -127 -22 -157
-36 -18 -63 -18 -99 1 -37 19 -50 43 -50 90 0 86 109 128 171 66z"/>
<path d="M3031 1234 c-61 -51 -28 -144 50 -144 83 0 118 83 60 141 -36 36 -70
37 -110 3z"/>
<path d="M3328 996 c-64 -17 -125 -62 -151 -110 l-22 -41 -3 78 -3 78 -67 -3
-67 -3 -3 -212 -2 -213 70 0 70 0 0 78 c1 76 1 77 17 47 23 -44 63 -84 108
-108 58 -32 202 -31 262 0 136 73 162 236 54 344 -70 71 -160 93 -263 65z
m146 -142 c35 -36 36 -101 2 -141 -20 -23 -32 -28 -69 -28 -79 0 -123 67 -93
140 18 41 40 54 92 55 31 0 48 -6 68 -26z"/>
<path d="M1700 433 c0 -16 -5 -20 -19 -16 -20 5 -51 -20 -51 -42 0 -24 31 -46
58 -42 24 3 27 8 30 52 2 26 -2 53 -7 58 -8 8 -11 5 -11 -10z m0 -58 c0 -13
-6 -25 -12 -28 -22 -7 -38 4 -38 28 0 13 6 25 13 28 21 7 37 -4 37 -28z"/>
<path d="M2660 389 c0 -64 15 -73 22 -14 5 46 32 39 39 -10 l7 -40 -2 45 c-1
40 -4 45 -23 44 -13 0 -23 5 -23 12 0 7 -4 16 -10 19 -6 4 -10 -17 -10 -56z"/>
<path d="M862 408 c-14 -14 2 -38 24 -38 8 0 14 -4 14 -8 0 -17 -13 -21 -31
-11 -12 6 -19 6 -19 0 0 -16 40 -24 56 -10 17 14 2 39 -23 39 -8 0 -13 6 -10
13 2 6 12 11 22 9 10 -2 14 1 10 7 -8 14 -28 14 -43 -1z"/>
<path d="M1050 400 c-23 -42 18 -85 57 -60 17 10 17 10 -2 9 -33 -2 -45 1 -45
11 0 6 14 10 30 10 31 0 39 17 18 38 -18 18 -46 14 -58 -8z m50 -5 c11 -13 8
-15 -14 -15 -25 0 -33 10 -19 23 10 11 19 8 33 -8z"/>
<path d="M1260 406 c-28 -35 11 -93 48 -70 35 22 22 84 -18 84 -10 0 -23 -7
-30 -14z m54 -19 c16 -25 -16 -56 -38 -37 -19 15 -20 32 -4 48 15 15 28 11 42
-11z"/>
<path d="M1860 406 c-28 -35 11 -93 48 -70 35 22 22 84 -18 84 -10 0 -23 -7
-30 -14z m54 -19 c16 -25 -16 -56 -38 -37 -19 15 -20 32 -4 48 15 15 28 11 42
-11z"/>
<path d="M2060 371 c0 -49 16 -46 22 4 5 46 32 39 39 -10 l7 -40 -2 45 c-1 44
-2 45 -33 45 -32 1 -33 0 -33 -44z"/>
<path d="M2281 407 c-31 -31 0 -84 41 -71 20 6 21 5 9 -10 -9 -10 -21 -14 -34
-10 -13 4 -17 2 -13 -5 9 -15 39 -14 54 1 7 7 12 32 12 57 0 43 -2 46 -29 48
-15 1 -33 -3 -40 -10z m53 -20 c16 -25 -16 -56 -38 -37 -19 15 -20 32 -4 48
15 15 28 11 42 -11z"/>
<path d="M2874 380 c1 -43 2 -45 29 -43 24 2 27 0 16 -13 -7 -9 -20 -12 -32
-8 -13 4 -17 2 -13 -5 9 -15 39 -14 54 1 7 7 11 35 11 62 -2 34 -3 41 -6 21
-10 -64 -49 -68 -56 -7 -4 30 -4 29 -3 -8z"/>
<path d="M3072 384 c3 -40 25 -61 52 -51 12 5 16 18 15 49 l-2 43 -6 -40 c-8
-53 -35 -55 -39 -2 -2 20 -8 37 -13 37 -6 0 -9 -16 -7 -36z"/>
<path d="M3280 371 c0 -49 16 -46 22 4 5 46 32 39 39 -10 l7 -40 -2 45 c-1 44
-2 45 -33 45 -32 1 -33 0 -33 -44z"/>
<path d="M1473 373 c9 -2 23 -2 30 0 6 3 -1 5 -18 5 -16 0 -22 -2 -12 -5z"/>
<path d="M2493 373 c9 -2 23 -2 30 0 6 3 -1 5 -18 5 -16 0 -22 -2 -12 -5z"/>
</g>
</svg>
